Coordinates
version=1
nRows=16
nColumns=63
inDegrees=yes

Units are S.I. units (second, meters, Newtons, ...)
If the header above contains a line with 'inDegrees', this indicates whether rotational values are in degrees (yes) or radians (no).

endheader
time	pelvis_tilt	pelvis_list	pelvis_rotation	pelvis_tx	pelvis_ty	pelvis_tz	hip_flexion_r	hip_adduction_r	hip_rotation_r	knee_angle_r	knee_angle_r_beta	ankle_angle_r	subtalar_angle_r	mtp_angle_r	hip_flexion_l	hip_adduction_l	hip_rotation_l	knee_angle_l	knee_angle_l_beta	ankle_angle_l	subtalar_angle_l	mtp_angle_l	L5_S1_Flex_Ext	L5_S1_Lat_Bending	L5_S1_axial_rotation	L4_L5_Flex_Ext	L4_L5_Lat_Bending	L4_L5_axial_rotation	L3_L4_Flex_Ext	L3_L4_Lat_Bending	L3_L4_axial_rotation	L2_L3_Flex_Ext	L2_L3_Lat_Bending	L2_L3_axial_rotation	L1_L2_Flex_Ext	L1_L2_Lat_Bending	L1_L2_axial_rotation	L1_T12_Flex_Ext	L1_T12_Lat_Bending	L1_T12_axial_rotation	Abs_r3	Abs_r2	Abs_r1	Abs_t1	Abs_t2	neck_flexion	neck_bending	neck_rotation	arm_flex_r	arm_add_r	arm_rot_r	elbow_flex_r	pro_sup_r	wrist_flex_r	wrist_dev_r	arm_flex_l	arm_add_l	arm_rot_l	elbow_flex_l	pro_sup_l	wrist_flex_l	wrist_dev_l
1.650000	-6.136255	4.931425	80.339546	0.214267	0.962634	0.516147	-2.216128	-2.960927	-3.360821	8.862068	0.154672	25.716982	-14.548794	0.000000	-1.079179	0.912649	-4.676953	9.126404	0.159286	28.616982	17.657444	0.000000	-0.442842	-0.791318	-2.768562	-0.822401	-1.052453	-2.941597	-0.727545	-1.924010	-2.941597	-0.506124	-1.924010	-2.422492	-0.411223	-1.613655	-2.249457	-0.253040	-1.225751	-2.076422	-3.163174	-8.951546	-15.397913	0.000000	0.000000	14.568761	11.035877	-16.181989	34.089856	6.615680	22.082603	149.550351	88.851140	12.077929	6.901139	6.114482	-22.552182	91.244073	9.326586	6.197765	-5.850167	-5.765336
1.675000	-6.255588	4.835490	80.180109	0.214163	0.962447	0.516509	-2.099319	-3.084224	-3.308221	8.890323	0.155165	25.680983	-14.410837	0.000000	-0.939780	1.026946	-4.752371	9.155102	0.159787	28.556942	17.684594	0.000000	-0.448719	-0.793071	-2.739102	-0.833316	-1.054784	-2.910295	-0.737200	-1.928273	-2.910295	-0.512841	-1.928273	-2.396714	-0.416680	-1.617230	-2.225520	-0.256398	-1.228467	-2.054326	-3.205153	-8.971376	-15.234061	0.000000	0.000000	14.942964	11.236648	-16.057114	34.116690	6.603686	21.957307	149.552662	88.862055	12.257824	6.867408	6.196411	-22.597688	90.876263	9.387589	6.107501	-5.776992	-5.589767
1.700000	-6.383524	4.769658	80.071409	0.214052	0.962299	0.516710	-2.092767	-3.212228	-3.233806	8.837230	0.154239	25.536027	-14.303999	0.000000	-0.843225	1.150296	-4.743963	9.188818	0.160375	28.480852	17.676566	0.000000	-0.452961	-0.797695	-2.718124	-0.841194	-1.060934	-2.888006	-0.744170	-1.939515	-2.888006	-0.517689	-1.939515	-2.378358	-0.420620	-1.626659	-2.208476	-0.258822	-1.235629	-2.038593	-3.235456	-9.023684	-15.117389	0.000000	0.000000	15.218306	11.386019	-15.964446	34.084220	6.602111	21.801823	149.552845	88.876960	12.426416	6.798069	6.246642	-22.653200	90.508203	9.443821	5.966655	-5.699855	-5.350367
1.725000	-6.513340	4.738129	79.985403	0.213960	0.962188	0.516809	-2.185667	-3.343229	-3.107227	8.706858	0.151963	25.323679	-14.224103	0.000000	-0.794296	1.277624	-4.681621	9.221922	0.160953	28.398662	17.653645	0.000000	-0.458517	-0.804109	-2.701181	-0.851512	-1.069464	-2.870005	-0.753297	-1.955110	-2.870005	-0.524039	-1.955110	-2.363533	-0.425779	-1.639738	-2.194710	-0.261997	-1.245564	-2.025886	-3.275140	-9.096238	-15.023159	0.000000	0.000000	15.471841	11.533410	-15.877619	34.037011	6.617504	21.628536	149.554796	88.907239	12.614582	6.762676	6.288542	-22.707092	90.168998	9.481367	5.801117	-5.624705	-5.105444
1.750000	-6.658085	4.737840	79.957387	0.213855	0.962121	0.516762	-2.375434	-3.490250	-2.988822	8.492665	0.148225	25.087632	-14.147301	0.000000	-0.788548	1.423017	-4.547897	9.246321	0.161379	28.311915	17.616692	0.000000	-0.463110	-0.813766	-2.693151	-0.860042	-1.082309	-2.861472	-0.760844	-1.978590	-2.861472	-0.529288	-1.978590	-2.356507	-0.430044	-1.659431	-2.188185	-0.264621	-1.260523	-2.019863	-3.307949	-9.205482	-14.978495	0.000000	0.000000	15.653278	11.668951	-15.783453	33.974573	6.641351	21.457886	149.553823	88.938816	12.802971	6.729578	6.324844	-22.766232	89.826032	9.518117	5.578521	-5.534704	-4.822769
1.775000	-6.787071	4.748303	79.985069	0.213711	0.962075	0.516594	-2.634566	-3.617249	-2.810139	8.198203	0.143086	24.823722	-14.158370	0.000000	-0.806280	1.553915	-4.338331	9.259142	0.161603	28.232774	17.556482	0.000000	-0.466383	-0.822328	-2.692933	-0.866119	-1.093696	-2.861241	-0.766220	-1.999408	-2.861241	-0.533029	-1.999408	-2.356316	-0.433083	-1.676891	-2.188008	-0.266491	-1.273786	-2.019700	-3.331324	-9.302338	-14.977286	0.000000	0.000000	15.798379	11.765815	-15.725255	33.922176	6.651579	21.294513	149.552870	88.975798	12.990783	6.663026	6.362739	-22.809066	89.558300	9.534438	5.337581	-5.460722	-4.547596
1.800000	-6.915832	4.783788	80.014370	0.213574	0.962054	0.516362	-2.936136	-3.755972	-2.595683	7.870702	0.137370	24.597493	-14.145972	0.000000	-0.853055	1.692420	-4.102459	9.272759	0.161840	28.160383	17.482764	0.000000	-0.470807	-0.831930	-2.696460	-0.874336	-1.106466	-2.864988	-0.773489	-2.022754	-2.864988	-0.538085	-2.022754	-2.359402	-0.437191	-1.696471	-2.190874	-0.269019	-1.288659	-2.022345	-3.362928	-9.410955	-14.996900	0.000000	0.000000	15.962635	11.928956	-15.600687	33.914719	6.669904	21.134436	149.551277	89.007261	13.228845	6.622055	6.378303	-22.853842	89.297306	9.557869	5.074685	-5.435498	-4.358687
1.825000	-7.023599	4.842270	80.049630	0.213464	0.962082	0.516035	-3.283313	-3.876090	-2.280423	7.487105	0.130675	24.343542	-14.215240	0.000000	-0.936899	1.815445	-3.843614	9.274103	0.161864	28.089832	17.396652	0.000000	-0.475713	-0.840887	-2.703484	-0.883447	-1.118380	-2.872452	-0.781549	-2.044533	-2.872452	-0.543693	-2.044533	-2.365548	-0.441747	-1.714737	-2.196581	-0.271823	-1.302534	-2.027613	-3.397972	-9.512283	-15.035966	0.000000	0.000000	16.071666	12.058253	-15.506647	33.915874	6.695553	20.987468	149.546391	89.035117	13.453800	6.575201	6.379847	-22.888632	89.163617	9.559068	4.824095	-5.426230	-4.175876
1.850000	-7.118046	4.897484	80.052928	0.213409	0.962111	0.515721	-3.598290	-3.992159	-1.954454	7.115472	0.124188	24.153936	-14.181134	0.000000	-1.024115	1.926645	-3.620885	9.265743	0.161718	28.017581	17.306895	0.000000	-0.479315	-0.849336	-2.703649	-0.890135	-1.129616	-2.872627	-0.787466	-2.065075	-2.872627	-0.547809	-2.065075	-2.365693	-0.445092	-1.731965	-2.196715	-0.273880	-1.315621	-2.027737	-3.423697	-9.607854	-15.036884	0.000000	0.000000	16.204589	12.172397	-15.467653	33.928422	6.721474	20.856669	149.548790	89.059263	13.671568	6.570011	6.377807	-22.923444	88.929882	9.571746	4.712967	-5.424689	-4.041786
1.875000	-7.186792	4.955787	80.028103	0.213406	0.962149	0.515470	-3.872698	-4.083600	-1.573934	6.780101	0.118335	23.964782	-14.165224	0.000000	-1.115289	2.011924	-3.435339	9.260564	0.161627	27.947918	17.209919	0.000000	-0.483328	-0.856211	-2.701982	-0.897588	-1.138760	-2.870856	-0.794059	-2.081791	-2.870856	-0.552395	-2.081791	-2.364234	-0.448818	-1.745985	-2.195361	-0.276174	-1.326271	-2.026487	-3.452363	-9.685628	-15.027615	0.000000	0.000000	16.318579	12.265874	-15.436253	33.930148	6.748603	20.780485	149.554736	89.072085	13.842209	6.537533	6.376409	-22.945229	88.822015	9.554555	4.653102	-5.433641	-3.954450
1.900000	-7.216558	5.011062	79.963331	0.213462	0.962163	0.515335	-4.073249	-4.135745	-1.178234	6.536486	0.114083	23.799054	-14.150040	0.000000	-1.203902	2.054905	-3.297850	9.258694	0.161595	27.902240	17.113979	0.000000	-0.487793	-0.859565	-2.703504	-0.905880	-1.143221	-2.872473	-0.801394	-2.089946	-2.872473	-0.557498	-2.089946	-2.365566	-0.452964	-1.752825	-2.196597	-0.278725	-1.331466	-2.027628	-3.484254	-9.723571	-15.036076	0.000000	0.000000	16.385292	12.307110	-15.403841	33.949175	6.785654	20.802473	149.565910	89.069638	13.945763	6.463168	6.366011	-22.951537	88.884399	9.507874	4.651501	-5.443781	-3.906151
1.925000	-7.236527	5.079328	79.881423	0.213558	0.962204	0.515308	-4.229721	-4.172611	-0.715644	6.349927	0.110827	23.591568	-14.287651	0.000000	-1.303488	2.092434	-3.194007	9.244312	0.161344	27.846850	17.006147	0.000000	-0.494259	-0.862828	-2.706156	-0.917888	-1.147562	-2.875291	-0.812017	-2.097881	-2.875291	-0.564888	-2.097881	-2.367887	-0.458969	-1.759480	-2.198752	-0.282419	-1.336521	-2.029617	-3.530440	-9.760488	-15.050828	0.000000	0.000000	16.416511	12.336376	-15.298030	33.933938	6.831892	20.887141	149.583192	89.058623	14.091471	6.253745	6.365864	-22.951996	88.900462	9.473138	4.757115	-5.457669	-3.919872
1.950000	-7.226876	5.136250	79.766743	0.213656	0.962237	0.515416	-4.288809	-4.185971	-0.363105	6.287583	0.109739	23.438531	-14.362947	0.000000	-1.384020	2.098259	-3.148379	9.232638	0.161140	27.801508	16.920659	0.000000	-0.502402	-0.861532	-2.713282	-0.933011	-1.145837	-2.882862	-0.825397	-2.094728	-2.882862	-0.574196	-2.094728	-2.374122	-0.466531	-1.756835	-2.204541	-0.287073	-1.334513	-2.034961	-3.588610	-9.745819	-15.090460	0.000000	0.000000	16.391936	12.291331	-15.138431	33.957157	6.896853	21.079258	149.614718	89.038465	14.148934	5.992953	6.397706	-22.913178	89.130541	9.402732	4.862999	-5.445576	-3.981171
1.975000	-7.186310	5.134703	79.633032	0.213707	0.962239	0.515701	-4.194752	-4.164498	-0.150766	6.364583	0.111083	23.315467	-14.422968	0.000000	-1.388135	2.062841	-3.146879	9.233115	0.161148	27.747005	16.846766	0.000000	-0.509373	-0.854385	-2.717190	-0.945957	-1.136333	-2.887015	-0.836849	-2.077353	-2.887015	-0.582163	-2.077353	-2.377541	-0.473004	-1.742263	-2.207717	-0.291056	-1.323443	-2.037893	-3.638401	-9.664979	-15.112197	0.000000	0.000000	16.417684	12.256018	-14.971180	34.016065	6.978354	21.270359	149.699365	89.033246	14.135320	5.700872	6.509631	-22.828607	89.489391	9.311888	4.907718	-5.388771	-4.161721
2.000000	-7.101485	5.076168	79.481752	0.213724	0.962216	0.516062	-3.961639	-4.094113	-0.103363	6.583225	0.114899	23.256891	-14.447759	0.000000	-1.333215	1.972208	-3.177196	9.236772	0.161212	27.679672	16.782227	0.000000	-0.514536	-0.839534	-2.720408	-0.955544	-1.116580	-2.890433	-0.845330	-2.041243	-2.890433	-0.588063	-2.041243	-2.380357	-0.477798	-1.711978	-2.210331	-0.294006	-1.300438	-2.040306	-3.675276	-9.496975	-15.130092	0.000000	0.000000	16.405264	12.154399	-14.845785	34.095416	7.097326	21.428656	149.870470	89.029442	14.044303	5.451787	6.686438	-22.692761	89.965295	9.201186	4.957454	-5.332693	-4.447997
2.025000	-6.966362	4.951630	79.325216	0.213685	0.962139	0.516510	-3.612693	-3.960977	-0.176237	6.885652	0.120177	23.246668	-14.440133	0.000000	-1.198236	1.814485	-3.279308	9.271978	0.161827	27.620485	16.747171	0.000000	-0.518038	-0.816459	-2.714398	-0.962049	-1.085890	-2.884048	-0.851085	-1.985138	-2.884048	-0.592066	-1.985138	-2.375098	-0.481051	-1.664923	-2.205448	-0.296007	-1.264695	-2.035798	-3.700297	-9.235945	-15.096667	0.000000	0.000000	16.401194	11.955260	-14.843350	34.131087	7.190100	21.460525	150.169326	89.040146	14.006494	5.343795	6.962312	-22.505097	90.415652	9.101343	5.048733	-5.306315	-4.758201
